<?xml version="1.0" standalone="yes"?>
<svg xmlns="http://www.w3.org/2000/svg" width="512" height="512">
<path style="fill:#3d4142; stroke:none;" d="M0 0L0 2L2 0L0 0z"/>
<path style="fill:#fefefe; stroke:none;" d="M0 17L17 0C1.89731 0 0 1.89731 0 17z"/>
<path style="fill:#3d4142; stroke:none;" d="M0 22L22 0C13.0987 0.67099 0.671039 13.0987 0 22z"/>
<path style="fill:#fefefe; stroke:none;" d="M0 37C12.8637 27.9387 27.9386 12.8636 37 0C15.5998 0 0 15.5997 0 37z"/>
<path style="fill:#3d4142; stroke:none;" d="M0 42C14.4795 31.8004 31.8004 14.4795 42 0C29.6633 0.929962 16.3711 20.6116 8 29C3.99639 33.0119 0.441416 36.1446 0 42z"/>
<path style="fill:#fefefe; stroke:none;" d="M0 57L29 29L57 0C52.6704 0 47.1123 -0.912842 43 0.603394C36.829 2.87866 31.5471 10.4529 27 15C19.3803 22.6198 4.36559 32.796 0.603395 43C-0.912807 47.1123 0 52.6704 0 57z"/>
<path style="fill:#3d4142; stroke:none;" d="M0 62L32 31L62 0C54.521 0.563782 50.0053 6.99475 45 12L12 45C6.99478 50.0052 0.563816 54.521 0 62z"/>
<path style="fill:#fefefe; stroke:none;" d="M0 77L39 39L77 0L62 1.02777L42 20L13 49L0.603395 63L0 77z"/>
<path style="fill:#3d4142; stroke:none;" d="M0 82L42 41L82 0C73.1829 0.664642 66.876 10.124 61 16L16 61C10.124 66.876 0.664686 73.183 0 82z"/>
<path style="fill:#fefefe; stroke:none;" d="M0 97L49 49L97 0C78.9593 0 72.3699 9.63013 60 22L18 64C6.65115 75.3488 0 80.6776 0 97z"/>
<path style="fill:#3d4142; stroke:none;" d="M0 102L52 51L102 0C91.7302 0.77417 82.8782 14.1218 76 21L20 77C13.3171 83.683 0.75331 92.0074 0 102z"/>
<path style="fill:#fefefe; stroke:none;" d="M0 117C21.725 101.697 40.195 77.805 59 59C77.8051 40.1949 101.697 21.7249 117 0C98.1791 0 90.8388 11.1612 78 24L21 81C8.87367 93.1263 0 99.3675 0 117z"/>
<path style="fill:#3d4142; stroke:none;" d="M0 122C22.823 105.923 42.2432 80.7568 62 61C81.4396 41.5604 106.181 22.457 122 0C110.667 0.85434 99.6418 17.3582 92 25L24 93C16.5468 100.453 0.834776 110.927 0 122z"/>
<path style="fill:#fefefe; stroke:none;" d="M0 137L35 103L99.787 38L112.184 19L137 0C132.67 0 127.112 -0.912842 123 0.603394C113.459 4.12122 104.113 17.8875 97 25L27 95C19.3803 102.62 4.36559 112.796 0.603395 123C-0.912817 127.112 0 132.67 0 137z"/>
<path style="fill:#3d4142; stroke:none;" d="M135 3L142 1L135 3z"/>
<path style="fill:#fefefe; stroke:none;" d="M142 0L143 1L142 0z"/>
<path style="fill:#4c606d; stroke:none;" d="M143 0L144 1L143 0z"/>
<path style="fill:#2d3945; stroke:none;" d="M414 400L410 400L410 129L410 72C410 53.1447 410.513 35.7511 398.32 20C381.461 -1.77881 356.696 0 332 0L204 0C183.029 0 158.328 -3.54974 138 1.88504C117.756 7.29752 101.304 26.1509 98.3002 47C93.5099 80.2434 98 117.385 98 151L98 363L98 436C98 453.864 96.7851 470.11 106.464 486C122.632 512.543 148.562 512 176 512L323 512C345.742 512 372.44 516.083 391 499.815C420.796 473.698 404.274 433.138 414 400z"/>
<path style="fill:#fefefe; stroke:none;" d="M365 0L365 1C369.57 1.39795 373.387 3.45477 377 0L365 0z"/>
<path style="fill:#3d4142; stroke:none;" d="M375 3L382 0L375 3z"/>
<path style="fill:#fefefe; stroke:none;" d="M378 5L387 10L388 10L397 0C389.74 0 382.83 -1.34027 378 5z"/>
<path style="fill:#3d4142; stroke:none;" d="M388 9L388 10L390 12L391 12L402 0C395.708 0.474304 392.264 4.73892 388 9z"/>
<path style="fill:#fefefe; stroke:none;" d="M417 0C409.975 0 403.533 -1.02948 398.001 4.05862C394.289 7.47208 388.201 15.4129 397.005 17.6543C402.931 19.163 413.958 4.31799 417 0z"/>
<path style="fill:#3d4142; stroke:none;" d="M398 21L399 22C407.56 18.0081 416.594 7.67422 422 0C412.98 0.679932 401.667 13.1356 398 21z"/>
<path style="fill:#fefefe; stroke:none;" d="M405 32C416.246 24.0781 429.078 11.2461 437 0C423.246 0 418.806 3.18906 409 13C406.422 15.5797 401.526 19.0356 401.252 23C401.045 26.0015 403.776 29.3768 405 32z"/>
<path style="fill:#3d4142; stroke:none;" d="M406 35C418.42 29.208 434.124 11.1806 442 0C430.937 0.833954 420.438 16.5435 413 24C409.637 27.3708 406.21 30.0743 406 35z"/>
<path style="fill:#fefefe; stroke:none;" d="M410 47C426.095 35.6627 445.663 16.0945 457 0C452.67 0 447.112 -0.912842 443 0.603394C433.129 4.2428 423.363 18.6334 416 26C413.223 28.7778 408.781 32.0053 407.788 36C406.949 39.3734 409.084 43.7711 410 47z"/>
<path style="fill:#3d4142; stroke:none;" d="M410 52L437 26L462 0C455.286 0.506104 451.529 5.47098 447 10L420 37C415.471 41.5292 410.506 45.2864 410 52z"/>
<path style="fill:#fefefe; stroke:none;" d="M410 67L444 34L477 0C472.67 0 467.112 -0.912842 463 0.603394C450.815 5.09586 438.137 23.8631 429 33C423.369 38.6312 414.618 44.8186 411.028 52C408.924 56.2066 410 62.415 410 67z"/>
<path style="fill:#3d4142; stroke:none;" d="M410 72L446 37L482 0C473.826 0.616211 468.451 8.54883 463 14L424 53C418.549 58.4511 410.616 63.8257 410 72z"/>
<path style="fill:#fefefe; stroke:none;" d="M410 87L454 44L497 0L481 1.60339L459 23L425 57L410.603 73L410 87z"/>
<path style="fill:#3d4142; stroke:none;" d="M410 92L456 47L502 0C492.58 0.710114 485.285 11.7147 479 18L428 69C421.715 75.2853 410.71 82.58 410 92z"/>
<path style="fill:#fefefe; stroke:none;" d="M410 107C420.371 99.6942 429.035 88.9646 438 80L488 30C495.819 22.1813 511.618 11.7716 512 0C497.841 0.0015564 490.447 11.5525 481 21L433 69C420.393 81.6071 410 88.5634 410 107z"/>
<path style="fill:#4c606d; stroke:none;" d="M369 1L370 2L369 1z"/>
<path style="fill:#3d4142; stroke:none;" d="M511 6L436 81C428.171 88.8293 410.874 100.409 410 112C420.371 104.694 429.035 93.9646 438 85L489 34C494.513 28.487 514.184 14.5222 511 6z"/>
<path style="fill:#fefefe; stroke:none;" d="M511 11L437 85C429.38 92.6198 414.366 102.796 410.603 113C409.087 117.112 410 122.67 410 127C420.738 119.436 429.718 108.282 439 99L492 46C501.225 36.7749 517.318 26.0575 511 11z"/>
<path style="fill:#4c606d; stroke:none;" d="M145.667 12.3333L146.333 12.6667L145.667 12.3333z"/>
<path style="fill:#999fa4; stroke:none;" d="M147 12L147 13L150 13L147 12z"/>
<path style="fill:#fefefe; stroke:none;" d="M150 12.4283C115.579 17.3704 111 47.1547 111 76L111 274L111 417C111 437.387 106.639 463.357 119.044 481C134.519 503.009 159.3 500 183 500L300 500C320.158 500 342.128 502.436 362 498.916C395.628 492.959 398 461.608 398 434L398 236L398 93C398 72.6443 402.149 47.3792 389.239 30C373.558 8.89029 348.242 12 325 12L209 12C189.82 12 168.984 9.70261 150 12.4283z"/>
<path style="fill:#999fa4; stroke:none;" d="M359.667 12.3333L360.333 12.6667L359.667 12.3333z"/>
<path style="fill:#4c606d; stroke:none;" d="M361.667 12.3333L362.333 12.6667L361.667 12.3333z"/>
<path style="fill:#3d4142; stroke:none;" d="M141 13L142 14L141 13z"/>
<path style="fill:#4c606d; stroke:none;" d="M142 13L143 14L142 13z"/>
<path style="fill:#999fa4; stroke:none;" d="M143 13L144 14L143 13M364.667 13.3333L365.333 13.6667L364.667 13.3333z"/>
<path style="fill:#4c606d; stroke:none;" d="M366 13L367 14L366 13z"/>
<path style="fill:#3d4142; stroke:none;" d="M138 14L139 15L138 14z"/>
<path style="fill:#999fa4; stroke:none;" d="M139.667 14.3333L140.333 14.6667L139.667 14.3333M368 14L369 15L368 14z"/>
<path style="fill:#3d4142; stroke:none;" d="M369 14L370 15L369 14z"/>
<path style="fill:#4c606d; stroke:none;" d="M136 15L137 16L136 15z"/>
<path style="fill:#999fa4; stroke:none;" d="M137 15L138 16L137 15M370 15L371 16L370 15z"/>
<path style="fill:#4c606d; stroke:none;" d="M371 15L372 16L371 15M134 16L135 17L134 16z"/>
<path style="fill:#999fa4; stroke:none;" d="M135 16L136 17L135 16z"/>
<path style="fill:#4c606d; stroke:none;" d="M373 16L374 17L373 16z"/>
<path style="fill:#3d4142; stroke:none;" d="M132 17L133 18L132 17z"/>
<path style="fill:#999fa4; stroke:none;" d="M133 17L134 18L133 17z"/>
<path style="fill:#4c606d; stroke:none;" d="M375 17L376 18L375 17z"/>
<path style="fill:#999fa4; stroke:none;" d="M131 18L132 19L131 18M376 18L377 19L376 18z"/>
<path style="fill:#3d4142; stroke:none;" d="M377 18L378 19L377 18z"/>
<path style="fill:#4c606d; stroke:none;" d="M129 19L130 20L129 19z"/>
<path style="fill:#999fa4; stroke:none;" d="M130 19L131 20L130 19M378 19L379 20L378 19z"/>
<path style="fill:#4c606d; stroke:none;" d="M110 20L111 21L110 20M128 20L129 21L128 20z"/>
<path style="fill:#999fa4; stroke:none;" d="M379 20L380 21L379 20z"/>
<path style="fill:#3d4142; stroke:none;" d="M380 20L381 21L380 20z"/>
<path style="fill:#999fa4; stroke:none;" d="M127 21L128 22L127 21z"/>
<path style="fill:#4c606d; stroke:none;" d="M381 21L382 22L381 21z"/>
<path style="fill:#999fa4; stroke:none;" d="M126 22L127 23L126 22z"/>
<path style="fill:#4c606d; stroke:none;" d="M382 22L383 23L382 22z"/>
<path style="fill:#999fa4; stroke:none;" d="M125 23L126 24L125 23M383 23L384 24L383 23M124 24L125 25L124 24M384 24L385 25L384 24M123 25L124 26L123 25M385 25L386 26L385 25M122 26L123 27L122 26M386 26L387 27L386 26z"/>
<path style="fill:#3d4142; stroke:none;" d="M511 26L436 101C428.171 108.829 410.874 120.409 410 132C420.371 124.694 429.035 113.965 438 105L489 54C494.513 48.487 514.184 34.5222 511 26z"/>
<path style="fill:#4c606d; stroke:none;" d="M121 27L122 28L121 27M387 27L388 28L387 27M120 28L121 29L120 28M388 28L389 29L388 28z"/>
<path style="fill:#3d4142; stroke:none;" d="M119 29L120 30L119 29M389 29L390 30L389 29z"/>
<path style="fill:#999fa4; stroke:none;" d="M119 30L120 31L119 30M389 30L390 31L389 30M118 31L119 32L118 31M390 31L391 32L390 31z"/>
<path style="fill:#fefefe; stroke:none;" d="M511 31L437 105C429.38 112.62 414.366 122.796 410.603 133C409.087 137.112 410 142.67 410 147C420.738 139.436 429.718 128.282 439 119L492 66C501.225 56.7749 517.318 46.0575 511 31z"/>
<path style="fill:#3d4142; stroke:none;" d="M117 32L118 33L117 32M391 32L392 33L391 32z"/>
<path style="fill:#999fa4; stroke:none;" d="M117 33L118 34L117 33M391 33L392 34L391 33z"/>
<path style="fill:#4c606d; stroke:none;" d="M116 34L117 35L116 34M392 34L393 35L392 34M115 36L116 37L115 36M393 36L394 37L393 36z"/>
<path style="fill:#3d4142; stroke:none;" d="M100 37L26 111C18.1707 118.829 0.87378 130.409 0 142C10.3714 134.694 19.0354 123.965 28 115L78 65C84.0392 58.9608 101.971 46.5728 100 37z"/>
<path style="fill:#999fa4; stroke:none;" d="M150 37L151 38L150 37z"/>
<path style="fill:#4c606d; stroke:none;" d="M151 37L152 38L151 37z"/>
<path style="fill:#3d4142; stroke:none;" d="M152.667 37.3333L153.333 37.6667L152.667 37.3333z"/>
<path style="fill:#2d3945; stroke:none;" d="M136 412L373 412L373 151L373 80C373 69.8842 375.232 56.3069 370.312 47.0401C362.256 31.8628 333.99 37 320 37L186 37C172.307 37 147.885 32.3453 139.228 46.0903C133.915 54.5262 136 67.5197 136 77L136 147L136 412z"/>
<path style="fill:#3d4142; stroke:none;" d="M354.667 37.3333L355.333 37.6667L354.667 37.3333z"/>
<path style="fill:#4c606d; stroke:none;" d="M356 37L357 38L356 37z"/>
<path style="fill:#999fa4; stroke:none;" d="M357 37L358 38L357 37z"/>
<path style="fill:#4c606d; stroke:none;" d="M114 38L115 39L114 38z"/>
<path style="fill:#999fa4; stroke:none;" d="M147 38L148 39L147 38z"/>
<path style="fill:#4c606d; stroke:none;" d="M148 38L149 39L148 38z"/>
<path style="fill:#3d4142; stroke:none;" d="M359 38L360 39L359 38z"/>
<path style="fill:#999fa4; stroke:none;" d="M360 38L361 39L360 38z"/>
<path style="fill:#4c606d; stroke:none;" d="M394 38L395 39L394 38z"/>
<path style="fill:#999fa4; stroke:none;" d="M114 39L115 40L114 39z"/>
<path style="fill:#4c606d; stroke:none;" d="M146 39L147 40L146 39z"/>
<path style="fill:#3d4142; stroke:none;" d="M361 39L362 40L361 39z"/>
<path style="fill:#999fa4; stroke:none;" d="M362 39L363 40L362 39M394 39L395 40L394 39z"/>
<path style="fill:#3d4142; stroke:none;" d="M113 40L114 41L113 40z"/>
<path style="fill:#999fa4; stroke:none;" d="M144 40L145 41L144 40z"/>
<path style="fill:#3d4142; stroke:none;" d="M363 40L364 41L363 40z"/>
<path style="fill:#999fa4; stroke:none;" d="M364 40L365 41L364 40z"/>
<path style="fill:#3d4142; stroke:none;" d="M395 40L396 41L395 40z"/>
<path style="fill:#999fa4; stroke:none;" d="M113 41L114 42L113 41z"/>
<path style="fill:#4c606d; stroke:none;" d="M143 41L144 42L143 41M365 41L366 42L365 41z"/>
<path style="fill:#999fa4; stroke:none;" d="M395 41L396 42L395 41M141 42L142 43L141 42z"/>
<path style="fill:#3d4142; stroke:none;" d="M142 42L143 43L142 42M366 42L367 43L366 42z"/>
<path style="fill:#999fa4; stroke:none;" d="M367 42L368 43L367 42z"/>
<path style="fill:#4c606d; stroke:none;" d="M112 43L113 44L112 43z"/>
<path style="fill:#999fa4; stroke:none;" d="M140 43L141 44L140 43M368 43L369 44L368 43z"/>
<path style="fill:#4c606d; stroke:none;" d="M396 43L397 44L396 43z"/>
<path style="fill:#fefefe; stroke:none;" d="M98 44L27 115C19.3803 122.62 4.36559 132.796 0.603395 143C-0.91281 147.112 0 152.67 0 157C10.3714 149.694 19.0354 138.965 28 130L78 80C88.2537 69.7463 101.913 60.2919 98 44z"/>
<path style="fill:#999fa4; stroke:none;" d="M112.333 44.6667L112.667 45.3333L112.333 44.6667M139 44L140 45L139 44M369 44L370 45L369 44M396.333 44.6667L396.667 45.3333L396.333 44.6667z"/>
<path style="fill:#3d4142; stroke:none;" d="M139 45L140 46L139 45M369 45L370 46L369 45z"/>
<path style="fill:#4c606d; stroke:none;" d="M409 45L410 46L409 45z"/>
<path style="fill:#999fa4; stroke:none;" d="M138 46L139 47L138 46M370 46L371 47L370 46z"/>
<path style="fill:#3d4142; stroke:none;" d="M511 46L436 121C428.171 128.829 410.874 140.409 410 152C420.371 144.694 429.035 133.965 438 125L489 74C494.513 68.487 514.184 54.5222 511 46z"/>
<path style="fill:#4c606d; stroke:none;" d="M111.333 47.6667L111.667 48.3333L111.333 47.6667M397.333 47.6667L397.667 48.3333L397.333 47.6667z"/>
<path style="fill:#999fa4; stroke:none;" d="M137 48L138 49L137 48M371 48L372 49L371 48M111 49L111 52L112 52L111 49z"/>
<path style="fill:#4c606d; stroke:none;" d="M137 49L138 50L137 49z"/>
<path style="fill:#3d4142; stroke:none;" d="M371 49L372 50L371 49z"/>
<path style="fill:#999fa4; stroke:none;" d="M397 49L397 52L398 52L397 49z"/>
<path style="fill:#3d4142; stroke:none;" d="M151 50L152 51L151 50z"/>
<path style="fill:#4c606d; stroke:none;" d="M148 400L361 400L361 150L361 82C361 74.5039 363.632 60.7567 359.821 54.1335C357.408 49.9403 352.232 50.0214 348 50.0008C338.334 49.9536 328.666 50 319 50L195 50L161 50C157.041 50.0015 151.593 49.2809 149.179 53.2284C145.412 59.39 148 72.9348 148 80L148 148L148 400z"/>
<path style="fill:#3d4142; stroke:none;" d="M355.667 50.3333L356.333 50.6667L355.667 50.3333z"/>
<path style="fill:#999fa4; stroke:none;" d="M136 51L137 52L136 51z"/>
<path style="fill:#3d4142; stroke:none;" d="M358 51L359 52L358 51z"/>
<path style="fill:#999fa4; stroke:none;" d="M372 51L373 52L372 51z"/>
<path style="fill:#fefefe; stroke:none;" d="M511 51L437 125C429.38 132.62 414.366 142.796 410.603 153C409.087 157.112 410 162.67 410 167C420.738 159.436 429.718 148.282 439 139L492 86C501.225 76.7749 517.318 66.0575 511 51z"/>
<path style="fill:#4c606d; stroke:none;" d="M136.333 52.6667L136.667 53.3333L136.333 52.6667z"/>
<path style="fill:#3d4142; stroke:none;" d="M359 52L360 53L359 52z"/>
<path style="fill:#4c606d; stroke:none;" d="M372.333 52.6667L372.667 53.3333L372.333 52.6667z"/>
<path style="fill:#3d4142; stroke:none;" d="M148 53L149 54L148 53M360.333 53.6667L360.667 54.3333L360.333 53.6667M136 54L137 55L136 54M372 54L373 55L372 54M97 60L25 132C17.3582 139.642 0.854392 150.667 0 162C10.0044 154.953 18.3533 144.647 27 136L76 87C81.3979 81.6021 100.135 68.3929 97 60z"/>
<path style="fill:#fefefe; stroke:none;" d="M97 65L27 135C19.3803 142.62 4.36559 152.796 0.603395 163C-0.91281 167.112 0 172.67 0 177C10.3714 169.694 19.0354 158.965 28 150L79 99C88.0483 89.9518 103.171 79.7052 97 65z"/>
<path style="fill:#3d4142; stroke:none;" d="M511 66L436 141C428.171 148.829 410.874 160.409 410 172C420.371 164.694 429.035 153.965 438 145L489 94C494.513 88.487 514.184 74.5222 511 66z"/>
<path style="fill:#fefefe; stroke:none;" d="M511 71L437 145C429.38 152.62 414.366 162.796 410.603 173C409.087 177.112 410 182.67 410 187C420.738 179.436 429.718 168.282 439 159L492 106C501.225 96.7749 517.318 86.0575 511 71z"/>
<path style="fill:#3d4142; stroke:none;" d="M97 80L25 152C17.3582 159.642 0.854392 170.667 0 182C10.0044 174.953 18.3533 164.647 27 156L76 107C81.3979 101.602 100.135 88.393 97 80z"/>
<path style="fill:#fefefe; stroke:none;" d="M97 85L27 155C19.3803 162.62 4.36559 172.796 0.603395 183C-0.912824 187.112 0 192.67 0 197C10.3714 189.694 19.0354 178.965 28 170L79 119C88.0483 109.952 103.171 99.7052 97 85z"/>
<path style="fill:#3d4142; stroke:none;" d="M511 86L436 161C428.171 168.829 410.874 180.409 410 192C420.371 184.694 429.035 173.965 438 165L489 114C494.513 108.487 514.184 94.5222 511 86z"/>
<path style="fill:#fefefe; stroke:none;" d="M511 91L437 165C429.38 172.62 414.366 182.796 410.603 193C409.087 197.112 410 202.67 410 207C420.738 199.436 429.718 188.282 439 179L492 126C501.225 116.775 517.318 106.057 511 91z"/>
<path style="fill:#3d4142; stroke:none;" d="M97 100L25 172C17.3582 179.642 0.854391 190.667 0 202C10.0044 194.953 18.3533 184.647 27 176L76 127C81.3979 121.602 100.135 108.393 97 100z"/>
<path style="fill:#fefefe; stroke:none;" d="M97 105L27 175C19.3803 182.62 4.36558 192.796 0.603395 203C-0.912813 207.112 0 212.67 0 217C10.3714 209.694 19.0354 198.965 28 190L79 139C88.0483 129.952 103.171 119.705 97 105z"/>
<path style="fill:#3d4142; stroke:none;" d="M511 106L436 181C428.171 188.829 410.874 200.409 410 212C420.371 204.694 429.035 193.965 438 185L489 134C494.513 128.487 514.184 114.522 511 106z"/>
<path style="fill:#fefefe; stroke:none;" d="M511 111L437 185C429.38 192.62 414.366 202.796 410.603 213C409.087 217.112 410 222.67 410 227C420.738 219.436 429.718 208.282 439 199L492 146C501.225 136.775 517.318 126.057 511 111z"/>
<path style="fill:#3d4142; stroke:none;" d="M97 120L25 192C17.3582 199.642 0.854393 210.667 0 222C10.0044 214.953 18.3533 204.647 27 196L76 147C81.3979 141.602 100.135 128.393 97 120z"/>
<path style="fill:#fefefe; stroke:none;" d="M97 125L27 195C19.3803 202.62 4.36559 212.796 0.603395 223C-0.912818 227.112 0 232.67 0 237C10.3714 229.694 19.0354 218.965 28 210L79 159C88.0483 149.952 103.171 139.705 97 125z"/>
<path style="fill:#3d4142; stroke:none;" d="M511 126L436 201C428.171 208.829 410.874 220.409 410 232C420.371 224.694 429.035 213.965 438 205L489 154C494.513 148.487 514.184 134.522 511 126z"/>
<path style="fill:#fefefe; stroke:none;" d="M511 131L437 205C429.38 212.62 414.366 222.796 410.603 233C409.087 237.112 410 242.67 410 247C420.738 239.436 429.718 228.282 439 219L492 166C501.225 156.775 517.318 146.057 511 131z"/>
<path style="fill:#3d4142; stroke:none;" d="M97 140L25 212C17.3582 219.642 0.854391 230.667 0 242C10.0044 234.953 18.3533 224.647 27 216L76 167C81.3979 161.602 100.135 148.393 97 140z"/>
<path style="fill:#fefefe; stroke:none;" d="M97 145L27 215C19.3803 222.62 4.36558 232.796 0.603395 243C-0.91282 247.112 0 252.67 0 257C10.3714 249.694 19.0354 238.965 28 230L79 179C88.0483 169.952 103.171 159.705 97 145z"/>
<path style="fill:#3d4142; stroke:none;" d="M511 146L436 221C428.171 228.829 410.874 240.409 410 252C420.371 244.694 429.035 233.965 438 225L489 174C494.513 168.487 514.184 154.522 511 146z"/>
<path style="fill:#fefefe; stroke:none;" d="M511 151L437 225C429.38 232.62 414.366 242.796 410.603 253C409.087 257.112 410 262.67 410 267C420.738 259.436 429.718 248.282 439 239L492 186C501.225 176.775 517.318 166.057 511 151z"/>
<path style="fill:#3d4142; stroke:none;" d="M97 160L25 232C17.3582 239.642 0.854389 250.667 0 262C10.0044 254.953 18.3533 244.647 27 236L76 187C81.3979 181.602 100.135 168.393 97 160z"/>
<path style="fill:#fefefe; stroke:none;" d="M97 165L27 235C19.3803 242.62 4.36559 252.796 0.603395 263C-0.912814 267.112 0 272.67 0 277C10.3714 269.694 19.0354 258.965 28 250L79 199C88.0483 189.952 103.171 179.705 97 165z"/>
<path style="fill:#3d4142; stroke:none;" d="M511 166L436 241C428.171 248.829 410.874 260.409 410 272C420.371 264.694 429.035 253.965 438 245L489 194C494.513 188.487 514.184 174.522 511 166z"/>
<path style="fill:#fefefe; stroke:none;" d="M511 171L437 245C429.38 252.62 414.366 262.796 410.603 273C409.087 277.112 410 282.67 410 287C420.738 279.436 429.718 268.282 439 259L492 206C501.225 196.775 517.318 186.057 511 171z"/>
<path style="fill:#3d4142; stroke:none;" d="M97 180L25 252C17.3582 259.642 0.854391 270.667 0 282C10.0044 274.953 18.3533 264.647 27 256L76 207C81.3979 201.602 100.135 188.393 97 180z"/>
<path style="fill:#fefefe; stroke:none;" d="M97 185L27 255C19.3803 262.62 4.36559 272.796 0.603395 283C-0.912814 287.112 0 292.67 0 297C10.3714 289.694 19.0354 278.965 28 270L79 219C88.0483 209.952 103.171 199.705 97 185z"/>
<path style="fill:#3d4142; stroke:none;" d="M511 186L436 261C428.171 268.829 410.874 280.409 410 292C420.371 284.694 429.035 273.965 438 265L489 214C494.513 208.487 514.184 194.522 511 186z"/>
<path style="fill:#fefefe; stroke:none;" d="M511 191L437 265C429.38 272.62 414.366 282.796 410.603 293C409.087 297.112 410 302.67 410 307C420.738 299.436 429.718 288.282 439 279L492 226C501.225 216.775 517.318 206.057 511 191z"/>
<path style="fill:#3d4142; stroke:none;" d="M97 200L25 272C17.3582 279.642 0.854389 290.667 0 302C10.0044 294.953 18.3533 284.647 27 276L76 227C81.3979 221.602 100.135 208.393 97 200z"/>
<path style="fill:#fefefe; stroke:none;" d="M97 205L27 275C19.3803 282.62 4.36559 292.796 0.603395 303C-0.912812 307.112 0 312.67 0 317C10.3714 309.694 19.0354 298.965 28 290L79 239C88.0483 229.952 103.171 219.705 97 205z"/>
<path style="fill:#3d4142; stroke:none;" d="M511 206L436 281C428.171 288.829 410.874 300.409 410 312C420.371 304.694 429.035 293.965 438 285L489 234C494.513 228.487 514.184 214.522 511 206z"/>
<path style="fill:#fefefe; stroke:none;" d="M511 211L437 285C429.38 292.62 414.366 302.796 410.603 313C409.087 317.112 410 322.67 410 327C420.738 319.436 429.718 308.282 439 299L492 246C501.225 236.775 517.318 226.057 511 211z"/>
<path style="fill:#3d4142; stroke:none;" d="M97 220L25 292C17.3582 299.642 0.85439 310.667 0 322C10.0044 314.953 18.3533 304.647 27 296L76 247C81.3979 241.602 100.135 228.393 97 220z"/>
<path style="fill:#fefefe; stroke:none;" d="M97 225L27 295C19.3803 302.62 4.36559 312.796 0.603395 323C-0.912813 327.112 0 332.67 0 337C10.3714 329.694 19.0354 318.965 28 310L79 259C88.0483 249.952 103.171 239.705 97 225z"/>
<path style="fill:#3d4142; stroke:none;" d="M511 226L436 301C428.171 308.829 410.874 320.409 410 332C420.371 324.694 429.035 313.965 438 305L489 254C494.513 248.487 514.184 234.522 511 226z"/>
<path style="fill:#fefefe; stroke:none;" d="M511 231L437 305C429.38 312.62 414.366 322.796 410.603 333C409.087 337.112 410 342.67 410 347C420.738 339.436 429.718 328.282 439 319L492 266C501.225 256.775 517.318 246.057 511 231z"/>
<path style="fill:#3d4142; stroke:none;" d="M97 240L25 312C17.3582 319.642 0.85439 330.667 0 342C10.0044 334.953 18.3533 324.647 27 316L76 267C81.3979 261.602 100.135 248.393 97 240z"/>
<path style="fill:#fefefe; stroke:none;" d="M97 245L27 315C19.3803 322.62 4.36559 332.796 0.603395 343C-0.91281 347.112 0 352.67 0 357C10.3714 349.694 19.0354 338.965 28 330L79 279C88.0483 269.952 103.171 259.705 97 245z"/>
<path style="fill:#3d4142; stroke:none;" d="M511 246L436 321C428.171 328.829 410.874 340.409 410 352C420.371 344.694 429.035 333.965 438 325L489 274C494.513 268.487 514.184 254.522 511 246z"/>
<path style="fill:#fefefe; stroke:none;" d="M511 251L437 325C429.38 332.62 414.366 342.796 410.603 353C409.087 357.112 410 362.67 410 367C420.738 359.436 429.718 348.282 439 339L492 286C501.225 276.775 517.318 266.057 511 251z"/>
<path style="fill:#3d4142; stroke:none;" d="M97 260L25 332C17.3582 339.642 0.85439 350.667 0 362C10.0044 354.953 18.3533 344.647 27 336L76 287C81.3979 281.602 100.135 268.393 97 260z"/>
<path style="fill:#fefefe; stroke:none;" d="M97 265L27 335C19.3803 342.62 4.36559 352.796 0.603395 363C-0.912813 367.112 0 372.67 0 377C10.3714 369.694 19.0354 358.965 28 350L79 299C88.0483 289.952 103.171 279.705 97 265z"/>
<path style="fill:#3d4142; stroke:none;" d="M511 266L436 341C428.171 348.829 410.874 360.409 410 372C420.371 364.694 429.035 353.965 438 345L489 294C494.513 288.487 514.184 274.522 511 266z"/>
<path style="fill:#fefefe; stroke:none;" d="M511 271L437 345C429.38 352.62 414.366 362.796 410.603 373C409.087 377.112 410 382.67 410 387C420.738 379.436 429.718 368.282 439 359L492 306C501.225 296.775 517.318 286.057 511 271z"/>
<path style="fill:#3d4142; stroke:none;" d="M97 280L25 352C17.3582 359.642 0.85439 370.667 0 382C10.0044 374.953 18.3533 364.647 27 356L76 307C81.3979 301.602 100.135 288.393 97 280z"/>
<path style="fill:#fefefe; stroke:none;" d="M97 285L27 355C19.3803 362.62 4.36559 372.796 0.603395 383C-0.912813 387.112 0 392.67 0 397C10.3714 389.694 19.0354 378.965 28 370L79 319C88.0483 309.952 103.171 299.705 97 285z"/>
<path style="fill:#3d4142; stroke:none;" d="M511 286L436 361C428.171 368.829 410.874 380.409 410 392C420.371 384.694 429.035 373.965 438 365L489 314C494.513 308.487 514.184 294.522 511 286z"/>
<path style="fill:#fefefe; stroke:none;" d="M511 291L435 367C425.939 376.061 410.048 386.298 410 400L414 400L412 405C422.738 397.436 431.718 386.282 441 377L493 325C502.048 315.952 517.171 305.705 511 291z"/>
<path style="fill:#3d4142; stroke:none;" d="M97 300L25 372C17.3582 379.642 0.85439 390.667 0 402C10.0044 394.953 18.3533 384.647 27 376L76 327C81.3979 321.602 100.135 308.393 97 300z"/>
<path style="fill:#fefefe; stroke:none;" d="M97 305L27 375C19.3803 382.62 4.36559 392.796 0.603395 403C-0.912813 407.112 0 412.67 0 417C10.3714 409.694 19.0354 398.965 28 390L79 339C88.0483 329.952 103.171 319.705 97 305z"/>
<path style="fill:#3d4142; stroke:none;" d="M511 306L436 381C428.171 388.829 410.874 400.409 410 412C420.371 404.694 429.035 393.965 438 385L489 334C494.513 328.487 514.184 314.522 511 306z"/>
<path style="fill:#fefefe; stroke:none;" d="M511 311L437 385C429.38 392.62 414.366 402.796 410.603 413C409.087 417.112 410 422.67 410 427C420.738 419.436 429.717 408.283 439 399L492 346C501.225 336.775 517.318 326.057 511 311z"/>
<path style="fill:#3d4142; stroke:none;" d="M97 320L25 392C17.3582 399.642 0.85439 410.667 0 422C10.0044 414.953 18.3533 404.647 27 396L76 347C81.3979 341.602 100.135 328.393 97 320z"/>
<path style="fill:#fefefe; stroke:none;" d="M97 325L27 395C19.3803 402.62 4.36558 412.796 0.603395 423C-0.912811 427.112 0 432.67 0 437C10.3714 429.694 19.0354 418.965 28 410L79 359C88.0483 349.952 103.171 339.705 97 325z"/>
<path style="fill:#3d4142; stroke:none;" d="M511 326L436 401C428.171 408.829 410.874 420.409 410 432C420.371 424.694 429.035 413.965 438 405L489 354C494.513 348.487 514.184 334.522 511 326z"/>
<path style="fill:#fefefe; stroke:none;" d="M511 331L437 405C429.38 412.62 414.366 422.796 410.603 433C409.087 437.112 410 442.67 410 447C420.738 439.436 429.717 428.283 439 419L492 366C501.225 356.775 517.318 346.057 511 331z"/>
<path style="fill:#3d4142; stroke:none;" d="M97 340L25 412C17.3582 419.642 0.85439 430.667 0 442C10.0044 434.953 18.3533 424.647 27 416L76 367C81.3979 361.602 100.135 348.393 97 340z"/>
<path style="fill:#fefefe; stroke:none;" d="M97 345L27 415C19.3803 422.62 4.36559 432.796 0.603395 443C-0.912812 447.112 0 452.67 0 457C10.3714 449.694 19.0354 438.965 28 430L79 379C88.0483 369.952 103.171 359.705 97 345z"/>
<path style="fill:#3d4142; stroke:none;" d="M511 346L436 421C428.171 428.829 410.874 440.409 410 452C420.371 444.694 429.035 433.965 438 425L489 374C494.513 368.487 514.184 354.522 511 346z"/>
<path style="fill:#fefefe; stroke:none;" d="M511 351L447 415C436.262 425.738 417.824 438.408 411.028 452C408.734 456.588 410.195 462.982 409 468C419.738 460.436 428.718 449.282 438 440L492 386C501.225 376.775 517.318 366.057 511 351z"/>
<path style="fill:#3d4142; stroke:none;" d="M97 360L25 432C17.3582 439.642 0.85439 450.667 0 462C10.0044 454.953 18.3533 444.647 27 436L76 387C81.3979 381.602 100.135 368.393 97 360z"/>
<path style="fill:#fefefe; stroke:none;" d="M97 365L27 435C19.3803 442.62 4.36559 452.796 0.603395 463C-0.912813 467.112 0 472.67 0 477C10.3714 469.694 19.0354 458.965 28 450L79 399C88.0483 389.952 103.171 379.705 97 365z"/>
<path style="fill:#3d4142; stroke:none;" d="M511 366L438 439C427.475 449.525 411.752 460.547 407 475C417.738 467.436 426.718 456.282 436 447L489 394C494.513 388.487 514.184 374.522 511 366z"/>
<path style="fill:#fefefe; stroke:none;" d="M511 371L410.108 472L394.96 494.999L371 512C375.33 512 380.888 512.913 385 511.397C395.204 507.634 405.38 492.62 413 485L486 412C496.18 401.82 518.069 387.846 511 371z"/>
<path style="fill:#3d4142; stroke:none;" d="M97 380L25 452C17.3582 459.642 0.85439 470.667 0 482C10.0044 474.953 18.3533 464.647 27 456L76 407C81.3979 401.602 100.135 388.393 97 380z"/>
<path style="fill:#fefefe; stroke:none;" d="M97 385L27 455C19.3803 462.62 4.36559 472.796 0.603395 483C-0.912813 487.112 0 492.67 0 497C10.3714 489.694 19.0354 478.965 28 470L79 419C88.0483 409.952 103.171 399.705 97 385z"/>
<path style="fill:#3d4142; stroke:none;" d="M511 386L428 469L386 512C397.073 511.165 407.547 495.453 415 488L486 417C491.852 411.148 514.319 394.885 511 386z"/>
<path style="fill:#fefefe; stroke:none;" d="M511 391L431 471L391 512C409.821 512 417.161 500.839 430 488L490 428C499.561 418.439 517.593 406.711 511 391z"/>
<path style="fill:#3d4142; stroke:none;" d="M97 400L25 472C17.3582 479.642 0.85439 490.667 0 502C10.0044 494.953 18.3533 484.647 27 476L76 427C81.3979 421.602 100.135 408.393 97 400z"/>
<path style="fill:#fefefe; stroke:none;" d="M97 405L24 478C13.9479 488.052 0.00166735 496.894 0 512C10.6981 511.653 18.9308 499.069 26 492L84 434C92.0395 425.961 102.299 417.629 97 405z"/>
<path style="fill:#3d4142; stroke:none;" d="M511 406L442 475L406 512C415.993 511.247 424.317 498.683 431 492L490 433C495.398 427.602 514.135 414.393 511 406z"/>
<path style="fill:#fefefe; stroke:none;" d="M511 411L445 477L411 512C429.437 512 436.393 501.607 449 489L494 444C502.865 435.135 517.015 425.334 511 411z"/>
<path style="fill:#3d4142; stroke:none;" d="M97 420L37 480L6 512C15.42 511.29 22.7147 500.285 29 494L79 444C84.0445 438.955 99.9776 427.971 97 420z"/>
<path style="fill:#fefefe; stroke:none;" d="M97 425L41 481L11 512C15.585 512 21.7934 513.076 26 510.972C32.8221 507.561 38.6544 499.346 44 494L82 456C90.4727 447.527 102.677 438.53 97 425z"/>
<path style="fill:#999fa4; stroke:none;" d="M247 425L247 426L250 426L247 425z"/>
<path style="fill:#4c606d; stroke:none;" d="M250.667 425.333L251.333 425.667L250.667 425.333z"/>
<path style="fill:#3d4142; stroke:none;" d="M252 425L253 426L252 425z"/>
<path style="fill:#2d3945; stroke:none;" d="M253 425.595C213.459 427.202 215.927 487.99 255 486.405C295.178 484.775 293.588 423.945 253 425.595z"/>
<path style="fill:#3d4142; stroke:none;" d="M255.667 425.333L256.333 425.667L255.667 425.333z"/>
<path style="fill:#4c606d; stroke:none;" d="M257.667 425.333L258.333 425.667L257.667 425.333z"/>
<path style="fill:#999fa4; stroke:none;" d="M259.667 425.333L260.333 425.667L259.667 425.333M244 426L245 427L244 426z"/>
<path style="fill:#4c606d; stroke:none;" d="M245 426L246 427L245 426z"/>
<path style="fill:#3d4142; stroke:none;" d="M262 426L263 427L262 426z"/>
<path style="fill:#4c606d; stroke:none;" d="M263 426L264 427L263 426z"/>
<path style="fill:#999fa4; stroke:none;" d="M264 426L265 427L264 426z"/>
<path style="fill:#3d4142; stroke:none;" d="M511 426L455 482L426 512C434.817 511.335 441.124 501.876 447 496L494 449C498.923 444.077 513.92 433.816 511 426z"/>
<path style="fill:#999fa4; stroke:none;" d="M241 427L242 428L241 427z"/>
<path style="fill:#4c606d; stroke:none;" d="M242 427L243 428L242 427M266 427L267 428L266 427z"/>
<path style="fill:#999fa4; stroke:none;" d="M267 427L268 428L267 427M239 428L240 429L239 428z"/>
<path style="fill:#3d4142; stroke:none;" d="M240 428L241 429L240 428z"/>
<path style="fill:#4c606d; stroke:none;" d="M268 428L269 429L268 428z"/>
<path style="fill:#999fa4; stroke:none;" d="M269 428L270 429L269 428M237 429L238 430L237 429z"/>
<path style="fill:#4c606d; stroke:none;" d="M238 429L239 430L238 429M270 429L271 430L270 429M236 430L237 431L236 430z"/>
<path style="fill:#3d4142; stroke:none;" d="M271 430L272 431L271 430z"/>
<path style="fill:#999fa4; stroke:none;" d="M272 430L273 431L272 430z"/>
<path style="fill:#4c606d; stroke:none;" d="M235 431L236 432L235 431z"/>
<path style="fill:#999fa4; stroke:none;" d="M273 431L274 432L273 431z"/>
<path style="fill:#fefefe; stroke:none;" d="M511 431L459 483L431 512C435.33 512 440.888 512.913 445 511.397C451.516 508.994 457.192 500.808 462 496L497 461C505.262 452.738 516.494 444.092 511 431z"/>
<path style="fill:#999fa4; stroke:none;" d="M233 432L234 433L233 432M274 432L275 433L274 432M232 433L233 434L232 433M275 433L276 434L275 433M231 434L232 435L231 434M276 434L277 435L276 434M230 435L231 436L230 435M277 435L278 436L277 435M278 436L279 437L278 436z"/>
<path style="fill:#4c606d; stroke:none;" d="M229 437L230 438L229 437z"/>
<path style="fill:#3d4142; stroke:none;" d="M248 437L249 438L248 437z"/>
<path style="fill:#4c606d; stroke:none;" d="M249 437L250 438L249 437z"/>
<path style="fill:#999fa4; stroke:none;" d="M250 437.533C227.332 443.034 235.264 479.688 258 474.471C282.018 468.959 273.889 431.736 250 437.533z"/>
<path style="fill:#4c606d; stroke:none;" d="M259 437L260 438L259 437z"/>
<path style="fill:#999fa4; stroke:none;" d="M279 437L280 438L279 437M228 438L229 439L228 438z"/>
<path style="fill:#4c606d; stroke:none;" d="M246 438L247 439L246 438z"/>
<path style="fill:#3d4142; stroke:none;" d="M262 438L263 439L262 438z"/>
<path style="fill:#999fa4; stroke:none;" d="M280 438L281 439L280 438M227 439L228 440L227 439z"/>
<path style="fill:#3d4142; stroke:none;" d="M244 439L245 440L244 439M264 439L265 440L264 439z"/>
<path style="fill:#4c606d; stroke:none;" d="M280 439L281 440L280 439z"/>
<path style="fill:#3d4142; stroke:none;" d="M97 440C74.0687 462.931 44.6561 485.516 26 512C34.1743 511.384 39.5488 503.451 45 498L84 459C88.415 454.585 99.6482 447.089 97 440z"/>
<path style="fill:#4c606d; stroke:none;" d="M227 440L228 441L227 440M243 440L244 441L243 440M265 440L266 441L265 440z"/>
<path style="fill:#999fa4; stroke:none;" d="M281 440L282 441L281 440M226 441L227 442L226 441z"/>
<path style="fill:#4c606d; stroke:none;" d="M242 441L243 442L242 441M266 441L267 442L266 441M226 442L227 443L226 442M241 442L242 443L241 442M282 442L283 443L282 442z"/>
<path style="fill:#999fa4; stroke:none;" d="M225 443L226 444L225 443z"/>
<path style="fill:#4c606d; stroke:none;" d="M240 443L241 444L240 443M268 443L269 444L268 443M225 444L226 445L225 444M239 444L240 445L239 444M269 444L270 445L269 444z"/>
<path style="fill:#999fa4; stroke:none;" d="M283 444L284 445L283 444z"/>
<path style="fill:#fefefe; stroke:none;" d="M97 445C75.6548 466.345 48.3671 487.345 31 512C35.585 512 41.7934 513.076 46 510.972C51.7379 508.103 56.5147 501.485 61 497C72.6562 485.344 105.039 464.158 97 445z"/>
<path style="fill:#3d4142; stroke:none;" d="M238 445L239 446L238 445M270 445L271 446L270 445z"/>
<path style="fill:#999fa4; stroke:none;" d="M224 446L225 447L224 446M284 446L285 447L284 446z"/>
<path style="fill:#3d4142; stroke:none;" d="M511 446C489.972 467.028 463.109 487.711 446 512C453.834 511.409 458.769 504.231 464 499L499 464C503.28 459.72 513.567 452.872 511 446z"/>
<path style="fill:#4c606d; stroke:none;" d="M224 447L225 448L224 447z"/>
<path style="fill:#3d4142; stroke:none;" d="M237 447L238 448L237 447M271 447L272 448L271 447z"/>
<path style="fill:#4c606d; stroke:none;" d="M284 447L285 448L284 447z"/>
<path style="fill:#999fa4; stroke:none;" d="M223 449L223 452L224 452L223 449M285 449L285 452L286 452L285 449z"/>
<path style="fill:#4c606d; stroke:none;" d="M236.333 450.667L236.667 451.333L236.333 450.667M272.333 450.667L272.667 451.333L272.333 450.667z"/>
<path style="fill:#fefefe; stroke:none;" d="M511 451C491.558 470.442 466.82 489.541 451 512C455.585 512 461.793 513.076 466 510.972C471.374 508.285 475.803 502.197 480 498C491.015 486.985 518.647 469.223 511 451z"/>
<path style="fill:#4c606d; stroke:none;" d="M223.333 452.667L223.667 453.333L223.333 452.667M285.333 452.667L285.667 453.333L285.333 452.667z"/>
<path style="fill:#3d4142; stroke:none;" d="M223 454L224 455L223 454M285 454L286 455L285 454M285.333 456.667L285.667 457.333L285.333 456.667M223 457L224 458L223 457z"/>
<path style="fill:#4c606d; stroke:none;" d="M223.333 458.667L223.667 459.333L223.333 458.667M285.333 458.667L285.667 459.333L285.333 458.667z"/>
<path style="fill:#3d4142; stroke:none;" d="M97 460L46 512C52.7136 511.494 56.4707 506.529 61 502L88 475C91.8448 471.155 99.276 466.093 97 460z"/>
<path style="fill:#999fa4; stroke:none;" d="M111 460L111 463L112 463L111 460M223.333 460.667L223.667 461.333L223.333 460.667z"/>
<path style="fill:#4c606d; stroke:none;" d="M236.333 460.667L236.667 461.333L236.333 460.667M272.333 460.667L272.667 461.333L272.333 460.667z"/>
<path style="fill:#999fa4; stroke:none;" d="M285.333 460.667L285.667 461.333L285.333 460.667M397 460L397 463L398 463L397 460z"/>
<path style="fill:#4c606d; stroke:none;" d="M111.333 463.667L111.667 464.333L111.333 463.667M224 463L225 464L224 463M284 463L285 464L284 463M397.333 463.667L397.667 464.333L397.333 463.667z"/>
<path style="fill:#999fa4; stroke:none;" d="M224 464L225 465L224 464z"/>
<path style="fill:#3d4142; stroke:none;" d="M237 464L238 465L237 464M271 464L272 465L271 464z"/>
<path style="fill:#999fa4; stroke:none;" d="M284 464L285 465L284 464z"/>
<path style="fill:#fefefe; stroke:none;" d="M97 465L51 512C55.3296 512 60.8877 512.913 65 511.397C69.7538 509.644 73.5149 504.485 77 501C85.5262 492.474 107.936 478.297 97 465z"/>
<path style="fill:#999fa4; stroke:none;" d="M112.333 466.667L112.667 467.333L112.333 466.667z"/>
<path style="fill:#4c606d; stroke:none;" d="M225 466L226 467L225 466z"/>
<path style="fill:#3d4142; stroke:none;" d="M238 466L239 467L238 466M270 466L271 467L270 466z"/>
<path style="fill:#4c606d; stroke:none;" d="M283 466L284 467L283 466z"/>
<path style="fill:#999fa4; stroke:none;" d="M396.333 466.667L396.667 467.333L396.333 466.667z"/>
<path style="fill:#4c606d; stroke:none;" d="M409 466L410 467L409 466z"/>
<path style="fill:#3d4142; stroke:none;" d="M511 466L466 512C479.084 511.014 494.068 488.936 503 480C506.685 476.313 513.159 471.779 511 466z"/>
<path style="fill:#999fa4; stroke:none;" d="M225 467L226 468L225 467z"/>
<path style="fill:#4c606d; stroke:none;" d="M239 467L240 468L239 467M269 467L270 468L269 467z"/>
<path style="fill:#999fa4; stroke:none;" d="M283 467L284 468L283 467z"/>
<path style="fill:#3d4142; stroke:none;" d="M112 468L113 469L112 468M226 468L227 469L226 468z"/>
<path style="fill:#4c606d; stroke:none;" d="M240 468L241 469L240 468M268 468L269 469L268 468M282 468L283 469L282 468M396 468L397 469L396 468z"/>
<path style="fill:#999fa4; stroke:none;" d="M226 469L227 470L226 469z"/>
<path style="fill:#4c606d; stroke:none;" d="M241 469L242 470L241 469M267 469L268 470L267 469z"/>
<path style="fill:#999fa4; stroke:none;" d="M282 469L283 470L282 469M113 470L114 471L113 470z"/>
<path style="fill:#3d4142; stroke:none;" d="M227 470L228 471L227 470M242 470L243 471L242 470M266 470L267 471L266 470z"/>
<path style="fill:#4c606d; stroke:none;" d="M281 470L282 471L281 470z"/>
<path style="fill:#999fa4; stroke:none;" d="M395 470L396 471L395 470z"/>
<path style="fill:#3d4142; stroke:none;" d="M113 471L114 472L113 471z"/>
<path style="fill:#999fa4; stroke:none;" d="M227 471L228 472L227 471z"/>
<path style="fill:#3d4142; stroke:none;" d="M395 471L396 472L395 471z"/>
<path style="fill:#fefefe; stroke:none;" d="M511 471L471 512C475.33 512 480.888 512.913 485 511.397C489.754 509.644 493.515 504.485 497 501C505.262 492.738 516.494 484.092 511 471z"/>
<path style="fill:#999fa4; stroke:none;" d="M114 472L115 473L114 472z"/>
<path style="fill:#4c606d; stroke:none;" d="M228 472L229 473L228 472z"/>
<path style="fill:#3d4142; stroke:none;" d="M245 472L246 473L245 472M263 472L264 473L263 472z"/>
<path style="fill:#999fa4; stroke:none;" d="M280 472L281 473L280 472M394 472L395 473L394 472z"/>
<path style="fill:#4c606d; stroke:none;" d="M114 473L115 474L114 473z"/>
<path style="fill:#999fa4; stroke:none;" d="M228 473L229 474L228 473z"/>
<path style="fill:#4c606d; stroke:none;" d="M247 473L248 474L247 473M261 473L262 474L261 473M279 473L280 474L279 473M394 473L395 474L394 473z"/>
<path style="fill:#999fa4; stroke:none;" d="M229 474L230 475L229 474z"/>
<path style="fill:#4c606d; stroke:none;" d="M249 474L250 475L249 474M258 474L259 475L258 474z"/>
<path style="fill:#3d4142; stroke:none;" d="M259 474L260 475L259 474M278 474L279 475L278 474z"/>
<path style="fill:#4c606d; stroke:none;" d="M115 475L116 476L115 475M230 475L231 476L230 475z"/>
<path style="fill:#999fa4; stroke:none;" d="M278 475L279 476L278 475z"/>
<path style="fill:#4c606d; stroke:none;" d="M393 475L394 476L393 475z"/>
<path style="fill:#3d4142; stroke:none;" d="M101 476L66 512C77.0642 511.166 87.5597 495.456 95 488C98.2732 484.72 103.801 480.862 101 476M231 476L232 477L231 476z"/>
<path style="fill:#999fa4; stroke:none;" d="M277 476L278 477L277 476z"/>
<path style="fill:#4c606d; stroke:none;" d="M116 477L117 478L116 477z"/>
<path style="fill:#999fa4; stroke:none;" d="M231 477L232 478L231 477M276 477L277 478L276 477z"/>
<path style="fill:#4c606d; stroke:none;" d="M392 477L393 478L392 477z"/>
<path style="fill:#999fa4; stroke:none;" d="M117 478L118 479L117 478M232 478L233 479L232 478M275 478L276 479L275 478M391 478L392 479L391 478z"/>
<path style="fill:#3d4142; stroke:none;" d="M117 479L118 480L117 479z"/>
<path style="fill:#999fa4; stroke:none;" d="M233 479L234 480L233 479M274 479L275 480L274 479z"/>
<path style="fill:#3d4142; stroke:none;" d="M391 479L392 480L391 479z"/>
<path style="fill:#fefefe; stroke:none;" d="M71 512C87.253 512 111.943 498.562 104 480C92.4624 485.38 78.3101 501.622 71 512z"/>
<path style="fill:#999fa4; stroke:none;" d="M118 480L119 481L118 480z"/>
<path style="fill:#4c606d; stroke:none;" d="M235 480L236 481L235 480z"/>
<path style="fill:#999fa4; stroke:none;" d="M273 480L274 481L273 480M390 480L391 481L390 480M119 481L120 482L119 481z"/>
<path style="fill:#4c606d; stroke:none;" d="M236 481L237 482L236 481z"/>
<path style="fill:#3d4142; stroke:none;" d="M271 481L272 482L271 481z"/>
<path style="fill:#999fa4; stroke:none;" d="M272 481L273 482L272 481M389 481L390 482L389 481z"/>
<path style="fill:#3d4142; stroke:none;" d="M119 482L120 483L119 482z"/>
<path style="fill:#999fa4; stroke:none;" d="M237 482L238 483L237 482z"/>
<path style="fill:#4c606d; stroke:none;" d="M238 482L239 483L238 482M270 482L271 483L270 482z"/>
<path style="fill:#3d4142; stroke:none;" d="M389 482L390 483L389 482z"/>
<path style="fill:#4c606d; stroke:none;" d="M120 483L121 484L120 483z"/>
<path style="fill:#999fa4; stroke:none;" d="M239 483L240 484L239 483z"/>
<path style="fill:#3d4142; stroke:none;" d="M240 483L241 484L240 483z"/>
<path style="fill:#4c606d; stroke:none;" d="M268 483L269 484L268 483z"/>
<path style="fill:#999fa4; stroke:none;" d="M269 483L270 484L269 483z"/>
<path style="fill:#4c606d; stroke:none;" d="M388 483L389 484L388 483M121 484L122 485L121 484z"/>
<path style="fill:#999fa4; stroke:none;" d="M241 484L242 485L241 484z"/>
<path style="fill:#4c606d; stroke:none;" d="M242 484L243 485L242 484M266 484L267 485L266 484z"/>
<path style="fill:#999fa4; stroke:none;" d="M267 484L268 485L267 484z"/>
<path style="fill:#4c606d; stroke:none;" d="M387 484L388 485L387 484z"/>
<path style="fill:#999fa4; stroke:none;" d="M122 485L123 486L122 485M244 485L245 486L244 485z"/>
<path style="fill:#4c606d; stroke:none;" d="M245 485L246 486L245 485z"/>
<path style="fill:#3d4142; stroke:none;" d="M262 485L263 486L262 485z"/>
<path style="fill:#4c606d; stroke:none;" d="M263 485L264 486L263 485z"/>
<path style="fill:#999fa4; stroke:none;" d="M264 485L265 486L264 485M386 485L387 486L386 485M123 486L124 487L123 486M247 486L247 487L250 487L247 486z"/>
<path style="fill:#4c606d; stroke:none;" d="M250.667 486.333L251.333 486.667L250.667 486.333z"/>
<path style="fill:#3d4142; stroke:none;" d="M252 486L253 487L252 486M255.667 486.333L256.333 486.667L255.667 486.333z"/>
<path style="fill:#4c606d; stroke:none;" d="M257.667 486.333L258.333 486.667L257.667 486.333z"/>
<path style="fill:#999fa4; stroke:none;" d="M259.667 486.333L260.333 486.667L259.667 486.333M385 486L386 487L385 486z"/>
<path style="fill:#3d4142; stroke:none;" d="M511 486L486 512C493.738 511.417 514.153 494.44 511 486z"/>
<path style="fill:#999fa4; stroke:none;" d="M124 487L125 488L124 487M384 487L385 488L384 487M125 488L126 489L125 488M383 488L384 489L383 488z"/>
<path style="fill:#3d4142; stroke:none;" d="M108 489L86 512C96.0027 511.246 104.3 498.7 111 492L111 491L108 489z"/>
<path style="fill:#999fa4; stroke:none;" d="M126 489L127 490L126 489z"/>
<path style="fill:#4c606d; stroke:none;" d="M382 489L383 490L382 489z"/>
<path style="fill:#999fa4; stroke:none;" d="M127 490L128 491L127 490z"/>
<path style="fill:#4c606d; stroke:none;" d="M381 490L382 491L381 490M128 491L129 492L128 491z"/>
<path style="fill:#999fa4; stroke:none;" d="M379 491L380 492L379 491z"/>
<path style="fill:#3d4142; stroke:none;" d="M380 491L381 492L380 491z"/>
<path style="fill:#fefefe; stroke:none;" d="M511 491L491 512C504.048 512 517.924 507.501 511 491M110 492L91 512C104.143 512 108.593 509.407 118 500L118 499L110 492z"/>
<path style="fill:#4c606d; stroke:none;" d="M129 492L130 493L129 492z"/>
<path style="fill:#999fa4; stroke:none;" d="M130 492L131 493L130 492M378 492L379 493L378 492M131 493L132 494L131 493M376 493L377 494L376 493z"/>
<path style="fill:#3d4142; stroke:none;" d="M377 493L378 494L377 493M132 494L133 495L132 494z"/>
<path style="fill:#999fa4; stroke:none;" d="M133 494L134 495L133 494z"/>
<path style="fill:#4c606d; stroke:none;" d="M375 494L376 495L375 494M134 495L135 496L134 495z"/>
<path style="fill:#999fa4; stroke:none;" d="M135 495L136 496L135 495z"/>
<path style="fill:#4c606d; stroke:none;" d="M373 495L374 496L373 495M136 496L137 497L136 496z"/>
<path style="fill:#999fa4; stroke:none;" d="M137 496L138 497L137 496M370 496L371 497L370 496z"/>
<path style="fill:#4c606d; stroke:none;" d="M371 496L372 497L371 496z"/>
<path style="fill:#3d4142; stroke:none;" d="M138 497L139 498L138 497z"/>
<path style="fill:#999fa4; stroke:none;" d="M139.667 497.333L140.333 497.667L139.667 497.333M368 497L369 498L368 497z"/>
<path style="fill:#3d4142; stroke:none;" d="M369 497L370 498L369 497M141 498L142 499L141 498z"/>
<path style="fill:#4c606d; stroke:none;" d="M142 498L143 499L142 498z"/>
<path style="fill:#999fa4; stroke:none;" d="M143 498L144 499L143 498M364.667 498.333L365.333 498.667L364.667 498.333z"/>
<path style="fill:#4c606d; stroke:none;" d="M366 498L367 499L366 498M145.667 499.333L146.333 499.667L145.667 499.333z"/>
<path style="fill:#999fa4; stroke:none;" d="M147.667 499.333L148.333 499.667L147.667 499.333M358 499L358 500L361 500L358 499z"/>
<path style="fill:#4c606d; stroke:none;" d="M361.667 499.333L362.333 499.667L361.667 499.333z"/>
<path style="fill:#3d4142; stroke:none;" d="M106 512C112.819 511.486 117.237 506.341 121 501C114.351 500.443 109.534 506.984 106 512z"/>
<path style="fill:#fefefe; stroke:none;" d="M111 512C118.26 512 125.17 513.34 130 507C121.124 501.772 116.975 503.519 111 512z"/>
<path style="fill:#3d4142; stroke:none;" d="M511 506L506 512C509.979 511.69 512.621 510.267 511 506M126 512L133 508L126 512z"/>
<path style="fill:#fefefe; stroke:none;" d="M131 512L143 512C138.837 509.738 134.592 508.44 131 512z"/>
<path style="fill:#3d4142; stroke:none;" d="M366 511L366 512L372 511L366 511z"/>
<path style="fill:#4c606d; stroke:none;" d="M143 511L144 512L143 511z"/>
<path style="fill:#fefefe; stroke:none;" d="M365 511L366 512L365 511M511 511L512 512L511 511z"/>
</svg>
