<?xml version="1.0" standalone="yes"?>
<svg xmlns="http://www.w3.org/2000/svg" width="500" height="500">
<path style="fill:#0c0c0c; stroke:none;" d="M0 0L0 234L1 234C1 135.943 78.5932 43.808 169 13.6667C189.004 6.99731 210.76 1.01401 232 1L210 0L163 0L0 0z"/>
<path style="fill:#d8dce1; stroke:none;" d="M232 0L232 1L237 1L232 0z"/>
<path style="fill:#409de6; stroke:none;" d="M237 0.424377C174.487 8.63226 118.889 27.1191 73.0039 73.0038C51.3986 94.6091 34.392 120.312 21.7693 148C9.89151 174.054 2.25999 203.378 0.960648 232C-1.09535 277.29 6.21607 320.877 26.2593 362C72.8705 457.633 180.753 511.761 285 497.718C410.969 480.748 505.496 365.394 499.961 239C495.283 132.191 420.472 38.8206 318 9.5787C292.884 2.41138 263.151 -3.00928 237 0.424377z"/>
<path style="fill:#d8dce1; stroke:none;" d="M263 0L263 1L267 1L263 0z"/>
<path style="fill:#0c0c0c; stroke:none;" d="M267 0L267 1C363.379 1.01053 454.568 77.8724 485.343 166C492.649 186.92 498.985 209.685 499 232L500 232L500 0L267 0z"/>
<path style="fill:#d8dce1; stroke:none;" d="M222.667 1.33334L223.333 1.66666L222.667 1.33334M276.667 1.33334L277.333 1.66666L276.667 1.33334M214.667 2.33334L215.333 2.66666L214.667 2.33334M284.667 2.33334L285.333 2.66666L284.667 2.33334M208.667 3.33334L209.333 3.66666L208.667 3.33334M291 3L292 4L291 3M203 4L204 5L203 4M296.667 4.33334L297.333 4.66666L296.667 4.33334M198 5L199 6L198 5M301 5L302 6L301 5M193 6L194 7L193 6M306 6L307 7L306 6M189 7L190 8L189 7M310 7L311 8L310 7M185 8L186 9L185 8M314 8L315 9L314 8M181 9L182 10L181 9M317.667 9.33334L318.333 9.66666L317.667 9.33334M178 10L179 11L178 10M321 10L322 11L321 10M175 11L176 12L175 11M324 11L325 12L324 11M172 12L173 13L172 12M327 12L328 13L327 12M169 13L170 14L169 13M330 13L331 14L330 13M166 14L167 15L166 14M333 14L334 15L333 14M163 15L164 16L163 15M336 15L337 16L336 15M160 16L161 17L160 16M339 16L340 17L339 16M158 17L159 18L158 17M341 17L342 18L341 17M155 18L156 19L155 18M344 18L345 19L344 18M153 19L154 20L153 19M346 19L347 20L346 19M150 20L151 21L150 20M349 20L350 21L349 20M148 21L149 22L148 21M351 21L352 22L351 21M146 22L147 23L146 22M353 22L354 23L353 22M144 23L145 24L144 23M355 23L356 24L355 23M141 24L142 25L141 24M139 25L140 26L139 25M360 25L361 26L360 25M137 26L138 27L137 26M362 26L363 27L362 26M135 27L136 28L135 27M364 27L365 28L364 27M130 30L131 31L130 30M128 31L129 32L128 31M371 31L372 32L371 31M126 32L127 33L126 32M121 35L122 36L121 35M378 35L379 36L378 35M119 36L120 37L119 36M116 38L117 39L116 38M383 38L384 39L383 38M113 40L114 41L113 40M386 40L387 41L386 40M110 42L111 43L110 42M389 42L390 43L389 42M107 44L108 45L107 44M392 44L393 45L392 44M106 45L107 46L106 45M393 45L394 46L393 45M103 47L104 48L103 47M396 47L397 48L396 47M100 49L101 50L100 49M99 50L100 51L99 50M400 50L401 51L400 50M98 51L99 52L98 51M95 53L96 54L95 53M404 53L405 54L404 53M94 54L95 55L94 54M405 54L406 55L405 54M90 57L91 58L90 57M409 57L410 58L409 57M89 58L90 59L89 58M410 58L411 59L410 58M88 59L89 60L88 59M411 59L412 60L411 59M84 62L85 63L84 62M415 62L416 63L415 62M83 63L84 64L83 63M416 63L417 64L416 63M82 64L83 65L82 64M417 64L418 65L417 64M81 65L82 66L81 65M418 65L419 66L418 65M80 66L81 67L80 66M66 80L67 81L66 80M433 80L434 81L433 80M65 81L66 82L65 81M434 81L435 82L434 81M64 82L65 83L64 82M435 82L436 83L435 82M63 83L64 84L63 83M436 83L437 84L436 83M62 84L63 85L62 84M59 88L60 89L59 88M440 88L441 89L440 88M58 89L59 90L58 89M441 89L442 90L441 89M57 90L58 91L57 90M54 94L55 95L54 94M445 94L446 95L445 94M53 95L54 96L53 95M51 98L52 99L51 98M50 99L51 100L50 99M449 99L450 100L449 99M49 100L50 101L49 100M47 103L48 104L47 103M452 103L453 104L452 103M45 106L46 107L45 106M454 106L455 107L454 106M44 107L45 108L44 107M42 110L43 111L42 110M457 110L458 111L457 110M40 113L41 114L40 113M459 113L460 114L459 113z"/>
<path style="fill:#646464; stroke:none;" d="M425 328L425 179C425 163.755 430.517 134.845 421.197 122.04C415.349 114.007 405.953 114 397 114L345 114L150 114L103 114C94.7537 114 85.7282 113.247 79.1883 119.34C68.8518 128.97 73 150.271 73 163L73 280L73 315C73 318.151 71.7837 324.739 74.6034 326.972C79.15 330.573 93.3432 328 99 328L166 328L425 328z"/>
<path style="fill:#0c0c0c; stroke:none;" d="M74 327L424 327L424 177C424 162.225 429.492 133.248 419.211 121.329C413.591 114.814 404.246 115.152 396.424 115.151C381.284 115.15 366.135 115.111 350.996 115.003C285.006 114.531 218.998 115.021 153 115L101 115C92.4556 115.003 83.0706 115.362 77.6528 123.015C68.5311 135.9 74 164.839 74 180L74 327z"/>
<path style="fill:#d8dce1; stroke:none;" d="M38 116L39 117L38 116M461 116L462 117L461 116z"/>
<path style="fill:#646464; stroke:none;" d="M248 118L247 120L248 118z"/>
<path style="fill:#409de6; stroke:none;" d="M249.278 119.345C246.762 120.341 248.088 124.699 250.722 123.655C253.237 122.659 251.912 118.301 249.278 119.345z"/>
<path style="fill:#646464; stroke:none;" d="M251 118L252 119L251 118M252 119L253 120L252 119z"/>
<path style="fill:#d8dce1; stroke:none;" d="M35 121L36 122L35 121z"/>
<path style="fill:#646464; stroke:none;" d="M246 121L247 122L246 121M253 121L254 122L253 121z"/>
<path style="fill:#d8dce1; stroke:none;" d="M464 121L465 122L464 121z"/>
<path style="fill:#646464; stroke:none;" d="M247 123L248 124L247 123M252 123L253 124L252 123z"/>
<path style="fill:#d8dce1; stroke:none;" d="M33 124L34 125L33 124z"/>
<path style="fill:#646464; stroke:none;" d="M248 124L249 125L248 124M251 124L252 125L251 124z"/>
<path style="fill:#d8dce1; stroke:none;" d="M32 126L33 127L32 126M467 126L468 127L467 126M31 128L32 129L31 128M468 128L469 129L468 128z"/>
<path style="fill:#646464; stroke:none;" d="M89 129L89 314L325 314L386 314C391.202 314 404.087 316.347 408.258 312.972C412.249 309.743 410 296.677 410 292L410 231L410 155C410 149.902 412.652 133.398 408.397 130.028C404.133 126.651 391.278 129 386 129L325 129L89 129z"/>
<path style="fill:#d8dce1; stroke:none;" d="M469 130L470 131L469 130M28 133L29 134L28 133M27 135L28 136L27 135M472 135L473 136L472 135M26 137L27 138L26 137M473 137L474 138L473 137M25 139L26 140L25 139M474 139L475 140L474 139M24 141L25 142L24 141M475.333 141.667L475.667 142.333L475.333 141.667M23.3333 143.667L23.6667 144.333L23.3333 143.667M476.333 143.667L476.667 144.333L476.333 143.667M22 146L23 147L22 146M477 146L478 147L477 146M21 148L22 149L21 148M478 148L479 149L478 148M20 150L21 151L20 150M479 150L480 151L479 150M19.3333 152.667L19.6667 153.333L19.3333 152.667M480 153L481 154L480 153M18 155L19 156L18 155M481 155L482 156L481 155M17.3333 157.667L17.6667 158.333L17.3333 157.667M482 158L483 159L482 158M16 160L17 161L16 160M483 160L484 161L483 160M15 163L16 164L15 163M484 163L485 164L484 163M14 166L15 167L14 166M485 166L486 167L485 166M13.3333 168.667L13.6667 169.333L13.3333 168.667M486 169L487 170L486 169M12.3333 171.667L12.6667 172.333L12.3333 171.667M487.333 171.667L487.667 172.333L487.333 171.667z"/>
<path style="fill:#409de6; stroke:none;" d="M127 172L128 173L127 172z"/>
<path style="fill:#d8dce1; stroke:none;" d="M128.233 172.742C124.886 174.334 125.827 177.786 129.062 178.682C143.786 182.761 164.689 179 180 179C184.129 179 193.94 180.803 197.238 177.973C203.891 172.264 186.98 172 185 172L145 172C140.157 172 132.697 170.619 128.233 172.742z"/>
<path style="fill:#409de6; stroke:none;" d="M197 172L198 173L197 172M198 173L199 174L198 173z"/>
<path style="fill:#d8dce1; stroke:none;" d="M11.3333 174.667L11.6667 175.333L11.3333 174.667z"/>
<path style="fill:#409de6; stroke:none;" d="M125 174L126 175L125 174z"/>
<path style="fill:#d8dce1; stroke:none;" d="M488 175L489 176L488 175z"/>
<path style="fill:#409de6; stroke:none;" d="M125 177L126 178L125 177M198 177L199 178L198 177z"/>
<path style="fill:#d8dce1; stroke:none;" d="M10 178L11 179L10 178z"/>
<path style="fill:#409de6; stroke:none;" d="M126 178L127 179L126 178z"/>
<path style="fill:#d8dce1; stroke:none;" d="M489 178L490 179L489 178z"/>
<path style="fill:#409de6; stroke:none;" d="M127 179L127 180L197 180L175 179L127 179z"/>
<path style="fill:#d8dce1; stroke:none;" d="M9 181L10 182L9 181M490.333 181.667L490.667 182.333L490.333 181.667M8 185L9 186L8 185M491 185L492 186L491 185M7.33333 188.667L7.66667 189.333L7.33333 188.667M492 189L493 190L492 189z"/>
<path style="fill:#d89a58; stroke:none;" d="M125 194C134.452 189.995 146.872 192 157 192L224 192C217.564 189.299 207.951 191 201 191L149 191C141.928 191 130.252 188.637 125 194M241.229 191.742C237.546 193.475 238.405 197.674 242.059 198.682C247.194 200.098 267.211 201.35 271.392 197.973C274.779 195.238 270.815 191.768 267.981 191.228C261.686 190.029 247.063 188.997 241.229 191.742z"/>
<path style="fill:#d8dce1; stroke:none;" d="M127.337 193.027C119.206 198.706 139.986 199 142 199L202 199C206.819 199 221.759 201.453 224.953 197.262C230.131 190.468 207.742 192 205 192L149 192C143.549 192 131.94 189.812 127.337 193.027z"/>
<path style="fill:#d89a58; stroke:none;" d="M225 192L226 193L225 192z"/>
<path style="fill:#d8dce1; stroke:none;" d="M6 193L7 194L6 193M493 193L494 194L493 193z"/>
<path style="fill:#d89a58; stroke:none;" d="M226 194L226 197L227 197L226 194z"/>
<path style="fill:#d8dce1; stroke:none;" d="M5.33333 197.667L5.66667 198.333L5.33333 197.667M494 197L495 198L494 197z"/>
<path style="fill:#d89a58; stroke:none;" d="M224 198L225 199L224 198z"/>
<path style="fill:#d8dce1; stroke:none;" d="M4.33333 202.667L4.66667 203.333L4.33333 202.667M495 202L496 203L495 202M3.33333 207.667L3.66667 208.333L3.33333 207.667z"/>
<path style="fill:#d89a58; stroke:none;" d="M154 211L155 212L154 211z"/>
<path style="fill:#d8dce1; stroke:none;" d="M155.319 211.742C151.629 213.633 154.047 217.665 157.059 218.566C162.494 220.193 179.914 221.068 184.677 217.821C188.416 215.273 185.27 211.683 181.981 211.148C175.799 210.143 160.928 208.869 155.319 211.742z"/>
<path style="fill:#d89a58; stroke:none;" d="M185 211L186 212L185 211M201.333 212.027C192.468 218.136 212.773 219 215 219L283 219C288.433 219 303.285 221.581 307.214 217.258C314.079 209.705 289.798 211 287 211L225 211C219.098 211 206.315 208.594 201.333 212.027M322.323 212.028C319.17 214.177 320.955 217.828 324.059 218.682C329.25 220.11 350.46 221.389 354.214 217.258C356.778 214.437 353.802 211.621 350.956 211.148C344.935 210.148 327.416 208.556 322.323 212.028M186 212L187 213L186 212M152 213L152 217L153 217L152 213M187 213L187 216L188 216L187 213z"/>
<path style="fill:#d8dce1; stroke:none;" d="M497.333 213.667L497.667 214.333L497.333 213.667M2.33333 214.667L2.66667 215.333L2.33333 214.667z"/>
<path style="fill:#d89a58; stroke:none;" d="M153 217L154 218L153 217M186 217L187 218L186 217M154.667 218.333L155.333 218.667L154.667 218.333M184.667 218.333L185.333 218.667L184.667 218.333z"/>
<path style="fill:#d8dce1; stroke:none;" d="M1 221L1 224L2 224L1 221M498 222L499 223L498 222z"/>
<path style="fill:#d89a58; stroke:none;" d="M155 230L155 231L185 231L155 230M202 230L202 231L306 231L274 230L202 230M153 231L154 232L153 231z"/>
<path style="fill:#d8dce1; stroke:none;" d="M154.608 232.027C152.287 233.895 153.686 236.951 156.148 237.682C160.831 239.073 182.877 240.298 185.953 236.262C188.295 233.189 184.485 231.286 181.981 231.059C176.28 230.54 159.13 228.386 154.608 232.027z"/>
<path style="fill:#d89a58; stroke:none;" d="M186 231L187 232L186 231M200 231L201 232L200 231z"/>
<path style="fill:#d8dce1; stroke:none;" d="M201.478 232.027C193.369 238.05 215.929 238 218 238L282 238C287.101 238 303.607 240.652 306.953 236.262C312.145 229.451 288.826 231 286 231L224 231C218.531 231 205.997 228.671 201.478 232.027z"/>
<path style="fill:#d89a58; stroke:none;" d="M307 231L308 232L307 231M322.337 232.027C318.902 234.427 322.188 237.391 325.019 237.852C330.536 238.75 348.99 240.517 353.392 236.973C356.262 234.663 353.648 231.609 350.941 231.148C345.026 230.14 327.306 228.556 322.337 232.027z"/>
<path style="fill:#d8dce1; stroke:none;" d="M499 232L499 235L500 235L499 232z"/>
<path style="fill:#d89a58; stroke:none;" d="M152 233L152 236L153 236L152 233M187 233L187 236L188 236L187 233M199 233L200 234L199 233M308 233L308 236L309 236L308 233z"/>
<path style="fill:#d8dce1; stroke:none;" d="M0 234L0 237L1 237L0 234z"/>
<path style="fill:#d89a58; stroke:none;" d="M199 235L200 236L199 235M185 237L186 238L185 237M306 237L307 238L306 237M154 250L155 251L154 250z"/>
<path style="fill:#d8dce1; stroke:none;" d="M155.319 250.742C151.662 252.622 153.967 256.834 157.059 257.682C162.394 259.146 180.059 260.121 184.677 256.972C188.445 254.404 185.305 250.689 181.981 250.148C175.808 249.144 160.916 247.866 155.319 250.742z"/>
<path style="fill:#d89a58; stroke:none;" d="M185 250L186 251L185 250M201.333 251.028C192.335 257.269 212.753 258 215 258L283 258C288.433 258 303.285 260.581 307.214 256.258C314.079 248.705 289.798 250 287 250L225 250C219.116 250 206.291 247.589 201.333 251.028z"/>
<path style="fill:#409de6; stroke:none;" d="M322 250C320.117 253.743 320.2 255.897 324 258L324 257L322 250z"/>
<path style="fill:#d8dce1; stroke:none;" d="M323.323 251.027C320.789 252.743 321.339 256.091 324.149 257.092C329.325 258.935 349.162 260.07 353.377 256.169C356.326 253.44 352.636 250.58 349.981 250.148C344.256 249.217 328.188 247.732 323.323 251.027z"/>
<path style="fill:#409de6; stroke:none;" d="M353 250L354 251L353 250z"/>
<path style="fill:#d89a58; stroke:none;" d="M186 251L187 252L186 251z"/>
<path style="fill:#409de6; stroke:none;" d="M354 251L355 252L354 251z"/>
<path style="fill:#d89a58; stroke:none;" d="M152 252L152 256L153 256L152 252M187 252L187 255L188 255L187 252z"/>
<path style="fill:#409de6; stroke:none;" d="M355.333 253.667L355.667 254.333L355.333 253.667z"/>
<path style="fill:#d89a58; stroke:none;" d="M153 256L154 257L153 256M186 256L187 257L186 256z"/>
<path style="fill:#409de6; stroke:none;" d="M354 256L355 257L354 256z"/>
<path style="fill:#d89a58; stroke:none;" d="M154 257L155 258L154 257M185 257L186 258L185 257z"/>
<path style="fill:#409de6; stroke:none;" d="M326 257L326 258L331 258L326 257M345 257L345 258L351 258L345 257M352 257L353 258L352 257z"/>
<path style="fill:#d8dce1; stroke:none;" d="M0 263L0 266L1 266L0 263M499 265L499 268L500 268L499 265z"/>
<path style="fill:#0c0c0c; stroke:none;" d="M0 266L0 500L232 500L232 499C146.706 498.991 60.939 434.938 25.3202 360C16.0716 340.542 9.09212 320.119 4.80093 299C2.74988 288.906 3.87849 275.243 0 266M499 268C498.936 364.891 419.827 456.719 331 486.333C310.914 493.03 289.325 498.998 268 499L268 500L500 500L500 337L500 290L499 268z"/>
<path style="fill:#d89a58; stroke:none;" d="M128.148 269.742C125.46 270.96 124.161 274.836 127.319 276.397C130.891 278.163 137.103 277 141 277L202 277C207.059 277 221.771 279.49 225.338 275.397C231.743 268.048 208.607 269 206 269L151 269C144.514 269 134.13 267.033 128.148 269.742z"/>
<path style="fill:#409de6; stroke:none;" d="M241 269L241 270L270 270L241 269M239 270L240 271L239 270z"/>
<path style="fill:#d8dce1; stroke:none;" d="M240.608 271.024C237.724 273.312 240.443 276.249 243.059 276.772C248.141 277.786 267.757 279.432 271.338 275.401C273.73 272.709 270.406 270.543 267.981 270.148C262.58 269.268 244.951 267.578 240.608 271.024z"/>
<path style="fill:#409de6; stroke:none;" d="M271 270L272 271L271 270M272 271L273 272L272 271M238 272L238 275L239 275L238 272M272 275L273 276L272 275z"/>
<path style="fill:#d8dce1; stroke:none;" d="M1.33333 276.667L1.66667 277.333L1.33333 276.667z"/>
<path style="fill:#409de6; stroke:none;" d="M240 276L241 277L240 276M271 276L272 277L271 276z"/>
<path style="fill:#d8dce1; stroke:none;" d="M498 277L499 278L498 277M2.33333 284.667L2.66667 285.333L2.33333 284.667M497 285L498 286L497 285z"/>
<path style="fill:#d89a58; stroke:none;" d="M127.323 290.028C123.555 292.596 126.695 296.311 130.019 296.852C145.815 299.421 163.983 297 180 297C184.287 297 194.163 298.81 197.377 295.397C203.387 289.016 188.635 289 186 289L144 289C139.54 289 131.16 287.412 127.323 290.028z"/>
<path style="fill:#d8dce1; stroke:none;" d="M3.33333 291.667L3.66667 292.333L3.33333 291.667M4.33333 296.667L4.66667 297.333L4.33333 296.667M5.33333 301.667L5.66667 302.333L5.33333 301.667z"/>
<path style="fill:#d89a58; stroke:none;" d="M322.333 302.027C319.26 304.145 321.192 307.666 324.109 308.566C329.179 310.131 349.565 311.299 353.392 307.397C355.961 304.778 354.046 301.677 350.941 301.148C344.985 300.133 327.357 298.565 322.333 302.027z"/>
<path style="fill:#d8dce1; stroke:none;" d="M6 306L7 307L6 306M7 310L8 311L7 310M8 314L9 315L8 314M491 314L492 315L491 314M9 318L10 319L9 318M10 321L11 322L10 321M489 321L490 322L489 321M11.3333 324.667L11.6667 325.333L11.3333 324.667M12.3333 327.667L12.6667 328.333L12.3333 327.667z"/>
<path style="fill:#0c0c0c; stroke:none;" d="M73 328L74 341L75 341L80 328L73 328z"/>
<path style="fill:#d8dce1; stroke:none;" d="M80 328L75 341L74 341L74 330L73 330C73 340.882 69.9405 357.239 78.2137 365.815C87.1294 375.057 103.385 372 115 372L208 372C204.301 381.859 205.554 396.417 194 401.121C188.826 403.228 183.408 402.568 178.019 403.059C175.425 403.295 171.713 405.27 174.047 408.401C177.48 413.006 197.52 410 203 410L290 410L314 410C316.508 409.995 321.155 410.667 322.338 407.701C324.439 402.435 302.974 401.774 299.188 398.467C292.316 392.462 292.156 380.331 290 372L384 372C395.208 372 411.281 374.981 419.786 365.895C428.293 356.808 425 339.424 425 328C416.355 328 406.63 326.735 398.104 328.147C394.901 328.678 393.194 331.954 389.957 332.188C381.481 332.801 371.765 328.109 363 328.004C328.678 327.593 294.325 328 260 328L196 328C186.851 328 175.023 325.994 166.17 328.314C158.357 330.362 153.946 338.905 146.996 342.231C139.213 345.956 133.538 340.802 126 340.383C122.761 340.202 117.282 342.472 114.788 339.397C112.667 336.781 115.257 330.865 116 328L80 328z"/>
<path style="fill:#0c0c0c; stroke:none;" d="M164 328L143 328L130 328C123.296 328 116.298 326.163 114.279 334.004C113.802 335.854 112.911 338.486 114.644 339.972C117.641 342.544 123.459 340.182 127 340.803C141.513 343.35 155.793 343.799 164 328M369 328L369 329C376.14 329.902 391.891 336.127 395 328L369 328z"/>
<path style="fill:#d8dce1; stroke:none;" d="M13.3333 330.667L13.6667 331.333L13.3333 330.667M14.3333 333.667L14.6667 334.333L14.3333 333.667M15 336L16 337L15 336M16 339L17 340L16 339M483 339L484 340L483 339z"/>
<path style="fill:#646464; stroke:none;" d="M247 340L247 341L251 341L247 340z"/>
<path style="fill:#d89a58; stroke:none;" d="M251 340L252 341L251 340z"/>
<path style="fill:#d8dce1; stroke:none;" d="M17 341L18 342L17 341z"/>
<path style="fill:#0c0c0c; stroke:none;" d="M206 347C210.571 347.667 211.674 345.278 212 341L206 347z"/>
<path style="fill:#d89a58; stroke:none;" d="M244 341L245 342L244 341z"/>
<path style="fill:#646464; stroke:none;" d="M245 341L246 342L245 341z"/>
<path style="fill:#0c0c0c; stroke:none;" d="M242 355L241 355L240 346C224.626 347.975 214.201 351.968 208 368L216 369C215.627 364.061 218.766 347.777 227.476 352.958C233.862 356.756 221.004 366.599 218 368C225.204 378.197 236.414 364.978 243 362.465C249.665 359.921 255.015 363.677 258 355L256 356C260.942 337.88 237.807 337.339 242 355z"/>
<path style="fill:#646464; stroke:none;" d="M253 341L254 342L253 341M243 342L244 343L243 342M254 342L257 345L254 342z"/>
<path style="fill:#d89a58; stroke:none;" d="M255 342L256 343L255 342z"/>
<path style="fill:#646464; stroke:none;" d="M242 343L243 344L242 343z"/>
<path style="fill:#d89a58; stroke:none;" d="M256 343L257 344L256 343z"/>
<path style="fill:#d8dce1; stroke:none;" d="M18 344L19 345L18 344z"/>
<path style="fill:#646464; stroke:none;" d="M241.333 344.667L241.667 345.333L241.333 344.667z"/>
<path style="fill:#d8dce1; stroke:none;" d="M481 344L482 345L481 344z"/>
<path style="fill:#646464; stroke:none;" d="M257 345L257 354L258 354L257 345z"/>
<path style="fill:#d8dce1; stroke:none;" d="M19 346L20 347L19 346z"/>
<path style="fill:#646464; stroke:none;" d="M240 346L241 355L242 355L240 346z"/>
<path style="fill:#d89a58; stroke:none;" d="M258 347L259 348L258 347z"/>
<path style="fill:#d8dce1; stroke:none;" d="M20 349L21 350L20 349M479 349L480 350L479 349M21 351L22 352L21 351z"/>
<path style="fill:#d89a58; stroke:none;" d="M258 351L259 352L258 351z"/>
<path style="fill:#d8dce1; stroke:none;" d="M478 351L479 352L478 351M22 353L23 354L22 353z"/>
<path style="fill:#d89a58; stroke:none;" d="M240 353L241 354L240 353z"/>
<path style="fill:#646464; stroke:none;" d="M256 354L257 355L256 354z"/>
<path style="fill:#d8dce1; stroke:none;" d="M23 355L24 356L23 355z"/>
<path style="fill:#646464; stroke:none;" d="M242 355L246 358L246 357L242 355z"/>
<path style="fill:#d89a58; stroke:none;" d="M256 355L257 356L256 355z"/>
<path style="fill:#d8dce1; stroke:none;" d="M242 356L243 357L242 356z"/>
<path style="fill:#646464; stroke:none;" d="M254 356L253 358L254 356z"/>
<path style="fill:#d89a58; stroke:none;" d="M255 356L256 357L255 356M254 357L255 358L254 357z"/>
<path style="fill:#d8dce1; stroke:none;" d="M24 358L25 359L24 358M245 358L246 359L245 358z"/>
<path style="fill:#d89a58; stroke:none;" d="M246 358L247 359L246 358z"/>
<path style="fill:#646464; stroke:none;" d="M247 358L247 359L252 359L247 358z"/>
<path style="fill:#d89a58; stroke:none;" d="M252 358L253 359L252 358z"/>
<path style="fill:#0c0c0c; stroke:none;" d="M258 370C265.57 371.802 273.962 371.445 281 368L281 367L273 358L258 370z"/>
<path style="fill:#d8dce1; stroke:none;" d="M25 360L26 361L25 360M26 362L27 363L26 362M27 364L28 365L27 364M30 369L31 370L30 369M31 371L32 372L31 371M32 373L33 374L32 373M35 378L36 379L35 378M464 378L465 379L464 378M36 380L37 381L36 380M37 381L38 382L37 381M38 383L39 384L38 383M40 386L41 387L40 386M459 386L460 387L459 386M42 389L43 390L42 389M457 389L458 390L457 389M44 392L45 393L44 392M45 393L46 394L45 393M47 396L48 397L47 396M452 396L453 397L452 396M49 399L50 400L49 399M50 400L51 401L50 400M449 400L450 401L449 400M51 401L52 402L51 401M53 404L54 405L53 404M446 404L447 405L446 404M54 405L55 406L54 405M56 408L57 409L56 408M57 409L58 410L57 409M58 410L59 411L58 410M59 411L60 412L59 411M62 415L63 416L62 415M63 416L64 417L63 416M64 417L65 418L64 417M65 418L66 419L65 418M66 419L67 420L66 419M79 432L80 433L79 432M80 433L81 434L80 433M81 434L82 435L81 434M82 435L83 436L82 435M83 436L84 437L83 436M88 440L89 441L88 440M89 441L90 442L89 441M90 442L91 443L90 442M94 445L95 446L94 445M95 446L96 447L95 446M98 448L99 449L98 448M99 449L100 450L99 449M103 452L104 453L103 452M396 452L397 453L396 452M106 454L107 455L106 454M110 457L111 458L110 457M389 457L390 458L389 457M113 459L114 460L113 459M118 462L119 463L118 462M121 464L122 465L121 464M126 467L127 468L126 467M128 468L129 469L128 468M130 469L131 470L130 469M137 473L138 474L137 473M141.667 475.333L142.333 475.667L141.667 475.333M144 476L145 477L144 476M146 477L147 478L146 477M148 478L149 479L148 478M150.667 479.333L151.333 479.667L150.667 479.333M349 479L350 480L349 479M153 480L154 481L153 480M155 481L156 482L155 481M158 482L159 483L158 482M160 483L161 484L160 483M339 483L340 484L339 483M163 484L164 485L163 484M166 485L167 486L166 485M169 486L170 487L169 486M171.667 487.333L172.333 487.667L171.667 487.333M175 488L176 489L175 488M178 489L179 490L178 489M181.667 490.333L182.333 490.667L181.667 490.333M318 490L319 491L318 490M185 491L186 492L185 491M189 492L190 493L189 492M193 493L194 494L193 493M198 494L199 495L198 494M302 494L303 495L302 494M203 495L204 496L203 495M208 496L209 497L208 496M214 497L215 498L214 497M221.667 498.333L222.333 498.667L221.667 498.333M278 498L279 499L278 498M232 499L232 500L235 500L232 499M267 499L268 500L267 499z"/>
</svg>
