<?xml version="1.0" standalone="yes"?>
<svg xmlns="http://www.w3.org/2000/svg" width="2048" height="2048">
<path style="fill:#ffffff; stroke:none;" d="M0 0L0 2048L2048 2048L2048 0L0 0z"/>
<path style="fill:#010101; stroke:none;" d="M1022 680C1045.14 680 1066.58 678.969 1089 672.573C1175.43 647.907 1241.83 571.135 1267.97 487C1278.73 452.385 1279.3 419.7 1279 384C1244.15 384 1209.84 396.334 1179 411.753C1082.67 459.916 1008.03 569.458 1022 680M1544 1322C1511.3 1313.06 1478.43 1285.43 1455 1262C1382.29 1189.3 1354.39 1079.58 1385.03 981C1397.36 941.314 1419.27 905.867 1446.83 875C1464.66 855.037 1486.18 834.681 1510 822C1508.12 812.535 1498.51 803.229 1492.41 796C1473.57 773.668 1451.07 753.724 1426 738.601C1357.08 697.023 1269.52 680.264 1191 700.884C1142.12 713.72 1096.51 740.644 1047 750.195C1017.02 755.98 987.335 741.944 960 731.203C919.54 715.305 878.814 699.09 835 696.089C808.207 694.254 779.936 698.612 754 705.127C729.056 711.391 704.347 720.796 682 733.579C566.494 799.648 513.869 919.797 505.09 1048C493.661 1214.88 558.367 1386.83 651.975 1522C690.027 1576.95 737.854 1643.14 806 1661.12C860.266 1675.43 909.832 1647.97 959 1629.43C988.045 1618.47 1018.03 1612.89 1049 1612.13C1127.35 1610.19 1190.39 1668.29 1269 1662.91C1312.54 1659.93 1349.04 1634.96 1379 1605C1431.5 1552.5 1473.86 1484.46 1506.26 1418C1520.48 1388.83 1539.21 1354.43 1544 1322z"/>
</svg>
